<svg width="22" height="22" viewBox="0 0 22 22" fill="none" xmlns="http://www.w3.org/2000/svg">
<path d="M6.2286 6.40011V2.88583C6.2286 2.26446 6.47544 1.66855 6.91481 1.22918C7.35418 0.789805 7.9501 0.542969 8.57146 0.542969H13.2572C13.8785 0.542969 14.4745 0.789805 14.9138 1.22918C15.3532 1.66855 15.6 2.26446 15.6 2.88583V6.40011H19.1143C19.7357 6.40011 20.3316 6.64695 20.771 7.08632C21.2103 7.52569 21.4572 8.1216 21.4572 8.74297V19.2858C21.4572 19.9072 21.2103 20.5031 20.771 20.9425C20.3316 21.3818 19.7357 21.6287 19.1143 21.6287H2.71432C2.09295 21.6287 1.49704 21.3818 1.05767 20.9425C0.618296 20.5031 0.37146 19.9072 0.37146 19.2858V8.74297C0.37146 8.1216 0.618296 7.52569 1.05767 7.08632C1.49704 6.64695 2.09295 6.40011 2.71432 6.40011H6.2286ZM2.71432 8.74297V19.2858H19.1143V8.74297H15.5977V12.2573H13.2572V8.74297H8.57146V12.2573H6.2286V8.74297H2.71432ZM8.57146 6.40011H13.2572V2.88583H8.57146V6.40011Z" fill="#09B451"/>
</svg>
