<svg width="24" height="24" viewBox="0 0 24 24" fill="none" xmlns="http://www.w3.org/2000/svg">
<path d="M17.6568 16.2426L13.4142 12L17.6568 7.75734C17.8444 7.5698 17.9497 7.31545 17.9497 7.05023C17.9497 6.78502 17.8444 6.53066 17.6568 6.34312C17.4693 6.15559 17.2149 6.05023 16.9497 6.05023C16.6845 6.05023 16.4302 6.15559 16.2426 6.34312L12 10.5858L7.75734 6.34312C7.5698 6.15559 7.31545 6.05023 7.05023 6.05023C6.78502 6.05023 6.53066 6.15559 6.34313 6.34312C6.15559 6.53066 6.05023 6.78502 6.05023 7.05023C6.05023 7.31545 6.15559 7.5698 6.34313 7.75734L10.5858 12L6.34313 16.2426C6.15559 16.4302 6.05023 16.6845 6.05023 16.9497C6.05023 17.2149 6.15559 17.4693 6.34313 17.6568C6.53066 17.8444 6.78502 17.9497 7.05023 17.9497C7.31545 17.9497 7.5698 17.8444 7.75734 17.6568L12 13.4142L16.2426 17.6568C16.4302 17.8444 16.6845 17.9497 16.9497 17.9497C17.2149 17.9497 17.4693 17.8444 17.6568 17.6568C17.8444 17.4693 17.9497 17.2149 17.9497 16.9497C17.9497 16.6845 17.8444 16.4302 17.6568 16.2426Z" fill="black"/>
</svg>
